<svg version="1.1" xmlns="http://www.w3.org/2000/svg" viewBox="0 0 512 512" >
  <path d="m512 294.699219v133.601562c0 5.398438-3 10.199219-7.5 12.898438l-121.300781 69c-2.097657 1.199219-4.796875 1.800781-7.199219 1.800781l-30-80.15625 30-70.84375 67.5-67.484375 66.398438-6.316406c1.5 2.402343 2.101562 4.800781 2.101562 7.5zm0 0" fill="#5a69e6"/>
  <path d="m376 361v151c-2.402344 0-5.097656-.601562-7.199219-1.800781l-120.300781-69c-4.5-2.699219-7.5-7.5-7.5-12.898438v-133.601562c0-2.699219.601562-5.097657 2.101562-7.5l68.019532 7.773437zm0 0" fill="#7984eb"/>
  <path d="m509.898438 287.199219-133.898438 73.800781-132.898438-73.800781c1.5-2.101563 3.296876-4.199219 5.699219-5.398438 0 0 120.601563-69.300781 120.898438-69.300781 2.101562-.898438 4.199219-1.5 6.300781-1.5s4.199219.601562 6.300781 1.5c.296875 0 121.898438 69.300781 121.898438 69.300781 2.402343 1.199219 4.199219 3.296875 5.699219 5.398438zm0 0" fill="#b5baf3"/>
  <path d="m509.898438 287.199219-133.898438 73.800781v-150c2.101562 0 4.199219.601562 6.300781 1.5.296875 0 121.898438 69.300781 121.898438 69.300781 2.402343 1.199219 4.199219 3.296875 5.699219 5.398438zm0 0" fill="#979fef"/>
  <path d="m270 84.699219v132.601562c0 5.398438-3 10.199219-7.5 12.898438l-120.300781 69c-2.097657 1.199219-4.796875 1.800781-7.199219 1.800781l-30-80.15625 30-69.84375 67.5-67.484375 65.398438-6.316406c1.5 2.402343 2.101562 4.800781 2.101562 7.5zm0 0" fill="#5a69e6"/>
  <path d="m135 151v150c-2.402344 0-5.097656-.601562-7.199219-1.800781l-120.300781-69c-4.5-2.699219-7.5-7.5-7.5-12.898438v-132.601562c0-2.699219.601562-5.097657 2.101562-7.5l68.019532 7.773437zm0 0" fill="#7984eb"/>
  <path d="m267.898438 77.199219-132.898438 73.800781-132.898438-73.800781c1.5-2.101563 3.296876-4.199219 5.699219-5.398438 0 0 120.601563-70.300781 120.898438-70.300781 2.101562-.898438 4.199219-1.5 6.300781-1.5s4.199219.601562 6.300781 1.5c.296875 0 120.898438 70.300781 120.898438 70.300781 2.402343 1.199219 4.199219 3.296875 5.699219 5.398438zm0 0" fill="#b5baf3"/>
  <path d="m267.898438 77.199219-132.898438 73.800781v-151c2.101562 0 4.199219.601562 6.300781 1.5.296875 0 120.898438 70.300781 120.898438 70.300781 2.402343 1.199219 4.199219 3.296875 5.699219 5.398438zm0 0" fill="#979fef"/>
  <path d="m391 166v120c0 8.398438-6.597656 15-15 15s-15-6.601562-15-15v-105h-136c-8.402344 0-15-6.601562-15-15 0-8.402344 6.597656-15 15-15h151c8.402344 0 15 6.597656 15 15zm0 0" fill="#a8ebfa"/>
  <path d="m391 166v120c0 8.398438-6.597656 15-15 15v-150c8.402344 0 15 6.597656 15 15zm0 0" fill="#76e2f8"/>
</svg>